<?xml version="1.0" standalone="no"?><!DOCTYPE svg PUBLIC "-//W3C//DTD SVG 1.1//EN" "http://www.w3.org/Graphics/SVG/1.1/DTD/svg11.dtd"><svg t="1625058970612" class="icon" viewBox="0 0 1024 1024" version="1.1" xmlns="http://www.w3.org/2000/svg" p-id="1774" width="64" height="64" xmlns:xlink="http://www.w3.org/1999/xlink"><defs><style type="text/css"></style></defs><path d="M529.386667 516.16l0.149333-0.170667 0.149333 0.170667-0.149333 0.149333zM387.2 597.333333a116.053333 116.053333 0 1 1 0-164.266666L469.333333 515.84l30.293334-30.08-82.133334-81.92a158.72 158.72 0 1 0 0 224.64l82.133334-82.133333L469.333333 516.266667z" fill="#FF0000" p-id="1775"></path><path d="M805.973333 403.84a158.72 158.72 0 0 0-224.64 0l-81.92 81.92 30.08 30.08 81.92-81.92a116.266667 116.266667 0 1 1 0 164.266667l-81.92-81.92-30.08 30.08 81.92 82.133333a158.933333 158.933333 0 0 0 224.64-224.64zM469.205333 516.181333l0.149334-0.149333 0.149333 0.149333-0.149333 0.149334z" fill="#0000FF" p-id="1776"></path><path d="M529.28 516.053333l0.213333-0.213333-30.08-30.08-30.293333 30.08 0.213333 0.213333-0.213333 0.213334 30.293333 30.08 30.08-30.08-0.213333-0.213334z" p-id="1777"></path></svg>