<?xml version="1.0" standalone="no"?><!DOCTYPE svg PUBLIC "-//W3C//DTD SVG 1.1//EN" "http://www.w3.org/Graphics/SVG/1.1/DTD/svg11.dtd"><svg t="1626852933732" class="icon" viewBox="0 0 1024 1024" version="1.1" xmlns="http://www.w3.org/2000/svg" p-id="1042" width="128" height="128" xmlns:xlink="http://www.w3.org/1999/xlink"><defs><style type="text/css"></style></defs><path d="M348.16 358.35904c48.2304 0 85.79072 22.4256 119.88992 65.536a10.24 10.24 0 0 1-16.05632 12.6976c-30.04416-37.95968-61.57312-57.11872-101.80608-57.73312a8.448 8.448 0 0 1-2.02752 0.22528 132.99712 132.99712 0 0 0-3.47136 265.95328l3.47136 0.04096c35.0208 0 63.52896-13.95712 89.87648-41.58464l1.6896-1.80224 3.328-3.61472 3.23584-3.67616 1.59744-1.86368 3.16416-3.81952 3.13344-3.9424 3.13344-4.11648 1.56672-2.12992 3.1744-4.41344 1.60768-2.304 4.92544-7.30112 3.40992-5.24288 3.5328-5.5808 3.6864-5.94944 3.85024-6.3488 8.31488-14.0288 11.76576-20.38784 7.46496-12.97408 6.8608-11.76576 4.28032-7.2192 6.0416-10.00448 5.66272-9.08288 5.36576-8.2944 3.45088-5.13024c0.57344-0.83968 1.1264-1.65888 1.69984-2.4576l3.34848-4.75136c1.11616-1.536 2.22208-3.04128 3.328-4.5056l3.30752-4.33152 3.31776-4.16768 3.35872-4.0448 3.4304-3.95264 1.7408-1.9456 3.56352-3.88096 1.82272-1.93536c28.9792-30.39232 61.39904-46.80704 100.58752-47.872l4.29056-0.0512 3.35872 0.04096a153.47712 153.47712 0 0 1-3.57376 306.91328c-0.78848 0-1.55648-0.09216-2.28352-0.256l2.28352 0.02048c-48.0256 0-85.4528-22.24128-119.4496-65.00352a10.24 10.24 0 1 1 16.03584-12.73856c30.4128 38.26688 62.39232 57.26208 103.41376 57.26208 0.67584 0 1.34144 0.06144 1.98656 0.19456l-1.98656 0.04096a132.99712 132.99712 0 0 0 3.47136-265.95328l-3.61472-0.0512-3.584 0.06144c-33.31072 0.96256-60.7232 14.88896-86.1184 41.5232l-1.6896 1.80224-3.328 3.61472-3.23584 3.67616-3.1744 3.75808-3.14368 3.87072-3.13344 4.03456a268.0832 268.0832 0 0 0-1.56672 2.07872l-3.15392 4.3008-1.5872 2.24256-3.23584 4.6592-3.30752 4.93568-3.39968 5.24288-3.5328 5.5808-5.59104 9.07264-5.9904 10.01472-4.25984 7.24992-6.8608 11.80672-14.72512 25.58976-6.67648 11.38688-4.17792 6.99392-5.90848 9.68704-3.7376 5.95968-3.60448 5.61152-3.50208 5.28384-3.40992 4.99712-3.35872 4.74112-3.31776 4.51584-3.30752 4.33152-3.328 4.16768-3.35872 4.0448-3.42016 3.95264-1.7408 1.9456-3.57376 3.88096-1.82272 1.93536c-28.9792 30.40256-61.41952 46.81728-100.61824 47.88224l-4.07552 0.0512a153.47712 153.47712 0 0 1-2.3552-306.93376c0.75776-0.17408 1.536-0.26624 2.3552-0.26624z" p-id="1043" fill="#1890ff"></path></svg>